<?xml version="1.0" encoding="UTF-8" standalone="no"?>
<!-- Generator: Adobe Illustrator 14.0.0, SVG Export Plug-In . SVG Version: 6.00 Build 43363)  -->

<svg
xmlns:dc="http://purl.org/dc/elements/1.1/"
xmlns:cc="http://creativecommons.org/ns#"
xmlns:rdf="http://www.w3.org/1999/02/22-rdf-syntax-ns#"
xmlns:svg="http://www.w3.org/2000/svg"
xmlns="http://www.w3.org/2000/svg"
xmlns:sodipodi="http://sodipodi.sourceforge.net/DTD/sodipodi-0.dtd"
xmlns:inkscape="http://www.inkscape.org/namespaces/inkscape"
version="1.1"
id="Layer_1"
x="0px"
y="0px"
width="1440px"
height="1440px"
viewBox="0 0 1440 1440"
enable-background="new 0 0 1440 1440"
xml:space="preserve"
inkscape:version="0.48.1 "
sodipodi:docname="monkey.svg"><metadata
id="metadata771"><rdf:RDF><cc:Work
rdf:about=""><dc:format>image/svg+xml</dc:format><dc:type
rdf:resource="http://purl.org/dc/dcmitype/StillImage" /><dc:title /></cc:Work></rdf:RDF></metadata><defs
id="defs769">


</defs><sodipodi:namedview
pagecolor="#ffffff"
bordercolor="#666666"
borderopacity="1"
objecttolerance="10"
gridtolerance="10"
guidetolerance="10"
inkscape:pageopacity="0"
inkscape:pageshadow="2"
inkscape:window-width="1436"
inkscape:window-height="821"
id="namedview767"
showgrid="false"
inkscape:zoom="0.28578899"
inkscape:cx="75.328496"
inkscape:cy="870.81393"
inkscape:window-x="86"
inkscape:window-y="67"
inkscape:window-maximized="0"
inkscape:current-layer="Layer_1" />










<path
style="fill:#00000000"
inkscape:connector-curvature="0"
id="path467"
d="m 1231.1448,434.61592 c -38.5874,-35.27856 -73.0917,48.50214 -94.5462,75.47917 -6.9886,8.7696 -19.2996,17.67461 -29.5116,26.89166 -157.01378,-40.74226 -263.78266,-22.18746 -337.97833,63.59209 -11.83115,13.67103 -21.13652,34.62209 -31.92851,51.26343 -11.43374,-16.60307 -23.12065,-25.63172 -40.02398,-33.72718 3.14693,-17.53625 3.60027,-33.13548 6.42633,-45.1462 11.19529,-47.45709 20.68317,-99.95986 16.45881,-167.86462 -3.59144,-57.8811 -22.47301,-101.9587 -42.78821,-144.81462 -20.54482,-43.36814 -50.98376,-92.50025 -49.37056,-134.95287 2.69358,-70.736697 91.09017,-99.594822 148.5768,-65.599757 0,0 28.2517,12.205017 34.29239,39.756092 10.45346,47.695535 26.21459,49.517755 26.21459,49.517755 0.46218,0 0.89197,-0.0618 1.15103,-0.16486 15.43143,-5.3695 17.58924,-19.13473 12.4994,-34.0981 C 821.42598,28.862392 746.37661,16.713307 746.37661,16.713307 c -26.75625,-7.6185682 -39.03486,-4.933818 -59.24703,0 -39.21738,14.227412 -86.88936,47.43648 -88.87349,105.326413 -2.88198,84.29881 57.5043,128.7856 82.28525,217.23518 23.04706,82.21459 9.11402,161.15274 -6.5794,227.10575 -2.79662,11.75462 -6.04069,26.55313 -10.85087,42.44673 -13.44436,-1.15986 -22.06088,-0.48867 -34.7634,3.89171 -0.28555,-20.26515 -7.56852,-44.16591 -9.89413,-62.95916 -10.01188,-81.02236 -27.00941,-149.86031 -56.17664,-215.85159 -9.32008,-21.1012 -20.51243,-66.31511 -35.24912,-88.69686 3.98885,-8.18378 7.66272,-19.33197 11.15408,-35.74368 C 574.33473,39.648495 496.6742,74.297085 495.09927,108.21561 c -1.58083,33.92441 32.77632,49.75031 -11.4573,118.24972 -34.8576,53.96878 -6.22909,54.37209 7.49788,52.1083 42.1759,74.53421 72.48826,168.15899 85.9444,269.38763 3.5149,26.45892 15.29012,72.85035 11.68985,89.03834 -32.88525,23.55633 -52.34675,57.46308 -59.70038,107.68146 -0.39741,2.68475 -0.80954,5.12811 -1.23345,7.41544 -1.22757,0.20607 -2.44925,0.39153 -3.66798,0.66236 -23.55928,5.16638 -42.62336,21.04526 -55.08155,43.05315 -9.37896,-6.61767 -20.90101,-10.52999 -33.3798,-10.42401 -31.02183,0.27377 -55.95291,24.93992 -55.69386,55.10509 0.25906,30.17106 25.61405,54.39564 56.63293,54.14247 6.85318,-0.0736 13.38843,-1.3777 19.44972,-3.61794 0.1884,0.98912 0.36503,1.95469 0.58287,2.95853 3.28235,14.94864 8.55765,28.79925 15.33134,41.16028 -43.66841,63.76283 -86.3477,143.18967 -122.5565,213.42587 -3.4472,6.6501 -4.44515,15.2725 0,23.0412 23.02056,56.2532 46.17064,112.3621 74.0367,163.7757 -1.84871,7.0857 -2.67886,16.6854 -1.5926,29.7088 4.31268,51.705 10.29744,59.0881 21.53983,66.7832 13.64454,9.3378 30.15928,-12.9292 32.32004,-10.7684 8.41339,8.4104 25.84661,-7.177 30.15634,-17.239 0.95379,-2.2107 0.93907,-6.597 3.23819,-6.2997 15.43731,1.993 20.48594,-22.9705 11.84293,-32.4731 -15.80235,-17.3891 -35.67893,-36.565 -55.22874,-45.1138 -17.51564,-56.7242 -64.26033,-103.4777 -75.76177,-166.7136 15.34017,-32.6674 48.88777,-80.834 83.58935,-127.4845 21.68113,27.9515 68.16676,41.3164 117.14874,30.5832 22.06676,-4.8425 41.61069,-13.9212 57.18047,-25.5787 13.77407,94.5344 34.05983,212.5163 52.01999,262.5256 -7.48316,6.5647 -15.99958,17.7482 -18.77854,35.7614 -7.91589,51.2722 -2.39037,59.9241 6.98271,69.8271 11.37192,11.9871 32.20817,-6.2821 33.85965,-3.721 6.45282,9.9971 26.77685,-1.5691 33.11192,-10.4917 1.39831,-1.9665 2.305,-6.2527 4.49225,-5.4814 14.66309,5.2076 27.16838,-17.6982 20.72439,-28.8051 -12.81733,-22.1257 -23.41208,-52.8531 -45.9793,-62.5795 0.65353,-32.3877 -15.13704,-87.6488 -18.32224,-112.4828 -9.72045,-75.7823 -21.23073,-149.9397 -29.62646,-220.53515 -1.92819,-16.18209 -1.30116,-34.32477 -2.65826,-51.39589 39.76493,-20.76561 71.402,-67.0805 79.78302,-124.37284 4.59822,-31.36624 7.77459,-48.51097 -1.16869,-74.56659 8.09252,-22.93813 12.98218,-46.51801 24.73385,-62.06425 31.0542,-41.08375 79.25902,-84.08097 143.8255,-87.97562 58.81429,-3.54729 107.14279,24.00084 165.86279,23.32966 1.5603,1.60143 3.4119,3.22346 5.5933,4.85433 31.0012,23.16481 58.1607,-32.70862 58.1607,-32.70862 45.9293,-45.13148 99.9393,-88.4643 70.6013,-115.28531 z" /><g
id="g469"
transform="matrix(2.9438054,0,0,2.9438054,158.1984,-1920.5226)">
<path
style="fill:#fed09e"
inkscape:connector-curvature="0"
id="path471"
d="m 340.493,839.191 c 0,0 -9.227,18.98 -19.757,11.111 -12.226,-9.14 5.575,-17.043 11.624,-24.631 7.288,-9.164 19.009,-37.624 32.117,-25.64 9.965,9.112 -8.382,23.832 -23.984,39.16 z" />
<path
style="fill:#fed09e"
inkscape:connector-curvature="0"
id="path473"
d="m 154.921,920.361 c 4.753,2.006 9.255,16.934 9.255,16.934 3.52,0.637 7.215,0.531 10.847,-1.434 7.591,-4.105 10.906,-12.687 7.41,-19.157 -3.501,-6.477 -12.495,-8.397 -20.085,-4.295 -3.475,1.88 -6.054,4.695 -7.496,7.817 l 0.069,0.135 z" />
<path
style="fill:#fed09e"
inkscape:connector-curvature="0"
id="path475"
d="m 101.68,953.564 c -4.719,-15.418 2.109,-25.821 2.109,-25.821 -7.96,-3.751 -16.965,-1.396 -20.104,5.264 -3.136,6.652 0.771,15.095 8.733,18.849 3.005,1.415 6.156,1.96 9.086,1.738" />
<path
style="fill:#fed09e"
inkscape:connector-curvature="0"
id="path477"
d="m 129.08,723.55 c 12.281,-57.687 -14.1,-45.917 -14.635,-34.395 -0.537,11.524 11.134,16.9 -3.892,40.169 -15.032,23.272 4.693,17.222 4.693,17.222 6.034,-5.543 10.22,-6.016 13.834,-22.996 z" />
<path
style="fill:#fed09e"
inkscape:connector-curvature="0"
id="path479"
d="m 96.897,1099.279 c 0,0 -8.782,-0.733 -7.317,16.83 1.465,17.564 3.498,20.072 7.317,22.686 4.635,3.172 10.245,-4.392 10.979,-3.658 2.858,2.857 8.78,-2.438 10.244,-5.856 0.324,-0.751 0.319,-2.241 1.1,-2.14 5.244,0.677 6.959,-7.803 4.023,-11.031 -7.449,-8.199 -17.563,-17.564 -26.346,-16.831 z" />
<path
style="fill:#fed09e"
inkscape:connector-curvature="0"
id="path481"
d="m 188.351,1088.961 c 0,0 -8.899,3.237 -10.701,14.912 -2.689,17.417 -0.812,20.356 2.372,23.72 3.863,4.072 10.941,-2.134 11.502,-1.264 2.192,3.396 9.096,-0.533 11.248,-3.564 0.475,-0.668 0.783,-2.124 1.526,-1.862 4.981,1.769 9.229,-6.012 7.04,-9.785 -5.554,-9.588 -9.877,-23.938 -22.987,-22.157 z" />
<g
id="g483">
<g
id="g485">
<path
style="fill:#fed09e"
inkscape:connector-curvature="0"
id="path487"
d="m 178.58,976.246 c -1.788,-8.147 -8.523,-14.32 -17.692,-17.461 0.628,-4.011 0.546,-8.262 -0.395,-12.555 -3.649,-16.639 -18.603,-27.493 -33.407,-24.246 -14.803,3.247 -23.847,19.363 -20.198,36.001 0.939,4.291 2.646,8.191 4.895,11.57 -7.014,6.688 -10.55,15.109 -8.763,23.258 3.246,14.803 22.795,23.095 43.657,18.521 20.866,-4.574 35.149,-20.286 31.903,-35.088 z m -54.798,-22.301 c -2.281,1.026 -5.322,-0.788 -6.786,-4.049 -1.468,-3.262 -0.812,-6.736 1.471,-7.764 2.278,-1.025 5.316,0.788 6.784,4.048 1.467,3.263 0.81,6.744 -1.469,7.765 z m 10.353,-16.296 c 2.394,-0.417 4.849,2.166 5.477,5.774 0.634,3.608 -0.799,6.88 -3.191,7.295 -2.394,0.416 -4.848,-2.17 -5.474,-5.777 -0.633,-3.609 0.797,-6.878 3.188,-7.292 z m 5.099,36.334 c -4.37,0.955 -8.496,-0.922 -9.213,-4.201 -0.719,-3.276 2.241,-6.705 6.612,-7.666 4.368,-0.956 8.491,0.924 9.21,4.2 0.718,3.273 -2.241,6.706 -6.609,7.667 z m 20.642,22.07 c -4.428,3.597 -9.732,4.4 -11.848,1.797 -2.114,-2.605 -0.239,-7.628 4.188,-11.227 4.429,-3.597 9.729,-4.396 11.844,-1.793 2.116,2.603 0.242,7.628 -4.184,11.223 z" />
</g>
</g>
</g>










</svg>
